<svg width="97" height="96" viewBox="0 0 97 96" fill="none" xmlns="http://www.w3.org/2000/svg">
<path d="M0.5 20C0.5 8.9543 9.4543 0 20.5 0H76.5C87.5457 0 96.5 8.9543 96.5 20V76C96.5 87.0457 87.5457 96 76.5 96H20.5C9.4543 96 0.5 87.0457 0.5 76V20Z" fill="url(#paint0_linear_854_9182)"/>
<rect x="8.5" y="8" width="80" height="80" rx="40" fill="#CAF1F8" fill-opacity="0.2"/>
<g clip-path="url(#clip0_854_9182)">
<path d="M67.154 70.9418L46.7017 60.1128C46.1687 59.83 45.5187 59.869 45.015 60.2103L29.376 71.0393C28.791 71.4455 28.5375 72.1833 28.752 72.8625C28.96 73.5353 29.5905 74 30.299 74H66.3902C67.1345 74 67.7877 73.493 67.9665 72.765C68.1485 72.0403 67.8105 71.2895 67.154 70.9418Z" fill="white"/>
<path d="M73.9984 67.8543L69.1884 46.1995C69.0714 45.6698 68.6977 45.2375 68.1939 45.0393C67.6869 44.841 67.1182 44.9093 66.6762 45.2148L51.0339 56.0438C50.5659 56.3688 50.3027 56.9115 50.3384 57.4738C50.3709 58.0425 50.6992 58.5495 51.1997 58.8128L71.6487 69.6418C71.8892 69.7685 72.1492 69.8335 72.4092 69.8335C72.7569 69.8335 73.1047 69.723 73.3939 69.4988C73.8977 69.1153 74.1349 68.475 73.9984 67.8543Z" fill="white"/>
<path d="M62.6818 42.6407C62.4673 41.9615 61.8401 41.5 61.1283 41.5H46.2953C43.5978 46.3847 39.6068 51.055 37.9656 52.8815C37.0426 53.9085 35.7198 54.5 34.3386 54.5C32.9573 54.5 31.6346 53.9085 30.7116 52.8815C30.0778 52.1762 29.0963 51.0485 27.9718 49.651L24.0393 67.3505C23.8963 68.0038 24.1661 68.6765 24.7186 69.0503C24.9916 69.2355 25.3101 69.3265 25.6253 69.3265C25.9503 69.3265 26.2721 69.2322 26.5516 69.0372L62.0513 44.4575C62.6396 44.0577 62.8898 43.32 62.6818 42.6407Z" fill="white"/>
<path d="M34.3386 22C28.0661 22 22.9636 27.1025 22.9636 33.375C22.9636 39.212 32.0896 49.5502 33.1296 50.7105C33.4384 51.0517 33.8771 51.25 34.3386 51.25C34.8001 51.25 35.2389 51.0517 35.5476 50.7105C36.5876 49.5502 45.7136 39.212 45.7136 33.375C45.7136 27.1025 40.6111 22 34.3386 22ZM34.3386 38.25C31.6476 38.25 29.4636 36.066 29.4636 33.375C29.4636 30.684 31.6476 28.5 34.3386 28.5C37.0296 28.5 39.2136 30.684 39.2136 33.375C39.2136 36.066 37.0296 38.25 34.3386 38.25Z" fill="white"/>
</g>
<defs>
<linearGradient id="paint0_linear_854_9182" x1="48.5" y1="0" x2="48.5" y2="120.48" gradientUnits="userSpaceOnUse">
<stop stop-color="#028EC7"/>
<stop offset="1" stop-color="#0C3D50"/>
</linearGradient>
<clipPath id="clip0_854_9182">
<rect width="52" height="52" fill="white" transform="translate(22.5 22)"/>
</clipPath>
</defs>
</svg>
